<svg width="25" height="24" viewBox="0 0 25 24" fill="none" xmlns="http://www.w3.org/2000/svg">
    <path
        d="M9.69253 14.0069C9.80559 13.6723 9.69253 13.0015 9.49077 12.4208C9.2003 11.8626 7.27313 11.5055 6.847 11.4604C6.82439 12.3549 7.31836 12.8004 7.8332 13.3811C8.34804 13.9618 9.5586 14.1855 9.69253 14.0069Z"
        fill="white" />
    <path
        d="M3.41766 12.2651C3.68726 18.5421 9.42363 20.5061 10.3872 20.6899C10.3872 20.6899 9.82715 17.5141 9.22186 15.9731C7.98866 14.3644 4.11166 12.5789 3.41766 12.2651Z"
        fill="white" />
    <path
        d="M20.3238 6.39366L20.0333 6.33472C20.0333 6.33472 18.2539 3.27858 12.902 3.23698H12.7907C7.44218 3.27858 5.65935 6.33472 5.65935 6.33472L5.36887 6.39366L3.14948 2.48291V8.50678L3.60692 9.72022C5.78632 9.66302 8.25619 10.9666 9.50678 11.5751C10.7243 12.6463 10.6982 14.0643 10.7852 15.1946C11.1539 15.6609 12.415 15.7528 12.7959 15.7701H12.9072C13.2881 15.7528 14.5491 15.6609 14.9179 15.1946C15.0048 14.0643 14.9753 12.6463 16.1963 11.5751C17.4469 10.9666 19.9168 9.66822 22.0961 9.72022L22.5536 8.50678V2.48291L20.3238 6.39366Z"
        fill="white" />
    <path
        d="M17.869 13.387C18.3908 12.8063 18.8761 12.3608 18.8552 11.4663C18.4291 11.5114 16.5019 11.8685 16.2097 12.4267C16.0079 13.0074 15.8966 13.6783 16.0079 14.0128C16.1436 14.1862 17.3524 13.9625 17.869 13.387Z"
        fill="white" />
    <path
        d="M16.4794 15.9731C15.8742 17.5141 15.3141 20.6899 15.3141 20.6899C16.2777 20.5061 22.014 18.5421 22.2836 12.2651C21.5879 12.5789 17.7109 14.3644 16.4794 15.9731Z"
        fill="white" />
</svg>